<svg width="20" height="12" viewBox="0 0 20 12" fill="none" xmlns="http://www.w3.org/2000/svg">
<path d="M10 11.5C10.3842 11.5 10.7119 11.3594 11.0056 11.0674L19.6271 2.63078C19.8757 2.40364 20 2.10079 20 1.75467C20 1.05162 19.435 0.5 18.6893 0.5C18.3277 0.5 18 0.64061 17.7514 0.878565L10 8.4823L2.24859 0.878565C1.9887 0.64061 1.66102 0.5 1.29944 0.5C0.564972 0.5 1.24596e-07 1.05162 1.16212e-07 1.75467C1.12084e-07 2.10079 0.124294 2.40364 0.372881 2.63078L8.99435 11.0674C9.28814 11.3594 9.61582 11.4892 10 11.5Z" fill="white" fill-opacity="0.6"/>
</svg>
