<svg width="32" height="32" viewBox="0 0 32 32" fill="none" xmlns="http://www.w3.org/2000/svg">
<g clip-path="url(#clip0_94_579)">
<path fill-rule="evenodd" clip-rule="evenodd" d="M24.4851 7.51472C29.1714 12.201 29.1714 19.799 24.4851 24.4853C19.7988 29.1716 12.2009 29.1716 7.51458 24.4853C2.82829 19.799 2.82829 12.201 7.51458 7.51472C12.2009 2.82843 19.7988 2.82843 24.4851 7.51472ZM15.9999 9.70883C16.6626 9.70883 17.1999 10.2461 17.1999 10.9088L17.1999 14.8L21.091 14.8C21.7538 14.8 22.291 15.3373 22.291 16C22.291 16.6627 21.7538 17.2 21.091 17.2L17.1999 17.2L17.1999 21.0912C17.1999 21.7539 16.6626 22.2912 15.9999 22.2912C15.3371 22.2912 14.7999 21.7539 14.7999 21.0912L14.7999 17.2L10.9087 17.2C10.2459 17.2 9.70869 16.6627 9.70869 16C9.70869 15.3373 10.2459 14.8 10.9087 14.8L14.7999 14.8L14.7999 10.9088C14.7999 10.2461 15.3371 9.70883 15.9999 9.70883Z" fill="#DFDFDF"/>
</g>
<defs>
<clipPath id="clip0_94_579">
<rect width="32" height="32" fill="white"/>
</clipPath>
</defs>
</svg>
