<svg width="20" height="16" viewBox="0 0 20 16" fill="none" xmlns="http://www.w3.org/2000/svg">
<path d="M0.656422 8.02356C0.353443 8.45491 0.49328 8.83921 1.05263 8.83921H2.12471C2.54421 12.8314 5.95467 16 10.0022 16C12.3716 16 14.5158 14.9098 15.9763 13.2157C16.2637 12.8785 16.2249 12.4549 15.9219 12.2353C15.619 12.0157 15.2461 12.0941 14.9975 12.3843C13.7933 13.7883 12.0065 14.6667 10.0022 14.6667C6.61502 14.6667 3.85713 12.1334 3.46092 8.83921H4.61846C5.17004 8.83921 5.30988 8.45491 5.01466 8.03139L3.27447 5.52942C3.02587 5.16864 2.65297 5.1608 2.39661 5.52942L0.656422 8.02356ZM4.0358 2.78432C3.7406 3.12157 3.77944 3.53726 4.09018 3.75687C4.39316 3.97648 4.7583 3.90589 5.01466 3.61569C6.22658 2.21961 8.01337 1.33334 10.0022 1.33334C13.3816 1.33334 16.1394 3.86667 16.5434 7.16862H15.3859C14.8343 7.16862 14.6944 7.54509 14.9896 7.97651L16.7298 10.4784C16.9784 10.8392 17.3513 10.8471 17.6077 10.4784L19.3401 7.98434C19.6509 7.54509 19.5033 7.16862 18.9439 7.16862H17.8796C17.4524 3.17648 14.0497 0 10.0022 0C7.63272 0 5.49632 1.08236 4.0358 2.78432Z" fill="white" fill-opacity="0.6"/>
</svg>
