<svg width="56" height="56" viewBox="0 0 56 56" fill="none" xmlns="http://www.w3.org/2000/svg">
<rect width="56" height="56" rx="12" fill="#224EED"/>
<path d="M16 28C16 34.5648 21.447 40 28 40C34.5647 40 40 34.553 40 27.9883C40 21.4353 34.5647 16 28 16C21.447 16 16 21.4471 16 28ZM17.9999 28C17.9999 22.4471 22.447 18.0118 28 18.0118C33.5529 18.0118 38 22.4353 38 27.9883C38 33.5413 33.5529 38.0001 28 38.0001C22.447 38.0001 17.9999 33.553 17.9999 28Z" fill="white"/>
<path d="M28 22C27.7368 22 27.5215 22.1165 27.3062 22.3262L23.2511 26.2641C23.0956 26.4155 23 26.6252 23 26.8699C23 27.3476 23.3828 27.7088 23.8731 27.7088C24.1363 27.7088 24.3517 27.6155 24.5071 27.4525L25.9904 25.9961L27.1985 24.5864L27.1148 27.0563L27.1148 33.1262C27.1148 33.6388 27.4856 34 28 34C28.5263 34 28.8971 33.6272 28.8971 33.1262L28.8971 27.0563L28.8015 24.5981L30.0096 25.9961L31.4928 27.4525C31.6603 27.6039 31.8756 27.7088 32.1388 27.7088C32.6292 27.7088 33 27.3476 33 26.8699C33 26.6252 32.9163 26.4155 32.7608 26.2641L28.6938 22.3262C28.4545 22.0932 28.2631 22 28 22Z" fill="white"/>
</svg>
