<svg width="26" height="20" viewBox="0 0 26 20" fill="none" xmlns="http://www.w3.org/2000/svg">
<path fill-rule="evenodd" clip-rule="evenodd" d="M1.78736 8.60987C8.76667 5.78741 13.4206 3.92667 15.7493 3.02765C22.3979 0.460774 23.7795 0.0148807 24.68 0.000156987C24.878 -0.00308132 25.3208 0.0424773 25.6077 0.25852C25.8499 0.440943 25.9165 0.687369 25.9484 0.860326C25.9803 1.03328 26.02 1.42728 25.9884 1.73514C25.6281 5.249 24.0692 13.7762 23.276 17.7118C22.9404 19.3771 22.2796 19.9354 21.6399 19.9901C20.2496 20.1088 19.1938 19.1372 17.8473 18.3179C15.7401 17.0358 14.5498 16.2377 12.5044 14.9867C10.1407 13.5408 11.673 12.7462 13.0201 11.4475C13.3726 11.1076 19.4983 5.93584 19.6169 5.46668C19.6317 5.40801 19.6455 5.18929 19.5055 5.0738C19.3655 4.95831 19.1589 4.9978 19.0098 5.02921C18.7985 5.07373 15.4323 7.1389 8.91132 11.2247C7.95585 11.8337 7.09041 12.1304 6.31501 12.1149C5.46019 12.0977 3.81586 11.6663 2.59347 11.2974C1.09416 10.8451 -0.0974649 10.6059 0.00629874 9.83761C0.0603452 9.43745 0.654034 9.0282 1.78736 8.60987Z" fill="white"/>
</svg>
