<svg width="887" height="339" viewBox="0 0 887 339" fill="none" xmlns="http://www.w3.org/2000/svg">
<g filter="url(#filter0_i_56_492)">
<path d="M96 12.8C46.592 12.8 6.4 52.992 6.4 102.4C6.4 151.808 46.592 192 96 192C145.408 192 185.6 151.808 185.6 102.4C185.6 52.992 145.408 12.8 96 12.8ZM96 160C64.256 160 38.4 134.144 38.4 102.4C38.4 70.656 64.256 44.8 96 44.8C127.744 44.8 153.6 70.656 153.6 102.4C153.6 134.144 127.744 160 96 160ZM175.9 192.768L176.412 192.256H175.9V192.768ZM355.1 192.256H354.844L355.1 192.768V192.256ZM355.1 13.056H314.908L265.756 76.8L216.604 13.056H176.156L245.532 102.912L176.668 192.256H217.116L266.012 129.024L314.908 192.256H355.356L286.236 102.912L355.612 13.056H355.1ZM521.5 12.8V102.4C521.5 134.144 495.644 160 463.9 160C432.156 160 406.3 134.144 406.3 102.4V12.8H374.3V102.4C374.3 151.808 414.492 192 463.9 192C513.308 192 553.5 151.808 553.5 102.4V12.8H521.5Z" fill="white"/>
</g>
<g filter="url(#filter1_i_56_492)">
<path d="M87.8 246.8V314H121.4C130.616 314 138.968 310.256 145.016 304.112C145.688 303.44 146.36 302.768 146.936 302.096C151.928 296.24 154.904 288.656 154.904 280.4C154.904 261.872 139.832 246.896 121.304 246.896L87.8 246.8ZM99.704 258.896H121.304C133.208 258.896 142.904 268.592 142.904 280.496C142.904 292.4 133.208 302.096 121.304 302.096H99.704V258.896ZM182.725 258.8H231.781V246.8H182.725C172.741 246.8 164.677 254.96 164.677 264.944V295.856C164.677 305.84 172.741 314 182.725 314H231.781V302H182.725C179.365 302 176.581 299.216 176.581 295.856V283.184H219.781V271.184H176.581V264.944C176.581 261.584 179.365 258.8 182.725 258.8ZM292.531 246.8L286.387 258.8L271.699 287.6L257.011 258.8L250.867 246.8H237.427L243.571 258.8L271.699 314L299.827 258.8L305.971 246.8H292.531ZM325.788 258.8H374.844V246.8H325.788C315.804 246.8 307.74 254.96 307.74 264.944V295.856C307.74 305.84 315.804 314 325.788 314H374.844V302H325.788C322.428 302 319.644 299.216 319.644 295.856V283.184H362.844V271.184H319.644V264.944C319.644 261.584 322.428 258.8 325.788 258.8ZM404.585 302C400.361 301.424 397.001 298.064 396.425 293.84V246.896H384.425V292.688C384.425 296.048 385.193 299.216 386.633 302.096C388.649 306.32 392.105 309.776 396.329 311.888C399.209 313.328 402.377 314.096 405.737 314.096H439.817V302.096L404.585 302ZM473.284 246.8C454.756 246.8 439.684 261.872 439.684 280.4C439.684 298.928 454.756 314 473.284 314C491.812 314 506.884 298.928 506.884 280.4C506.884 261.872 491.812 246.8 473.284 246.8ZM473.284 302C461.38 302 451.684 292.304 451.684 280.4C451.684 268.496 461.38 258.8 473.284 258.8C485.188 258.8 494.884 268.496 494.884 280.4C494.884 292.304 485.188 302 473.284 302ZM569.375 252.08C566.111 248.816 561.599 246.8 556.607 246.8H514.271V314H526.271V283.088H558.431V282.992C558.623 282.992 558.815 282.992 559.007 282.992C560.831 282.8 562.559 282.32 564.191 281.552C570.431 278.672 574.751 272.336 574.751 265.04C574.751 260.048 572.735 255.536 569.471 252.176L569.375 252.08ZM559.199 270.608C558.431 270.992 557.567 271.184 556.703 271.184H526.271V258.8H556.703C558.815 258.8 560.255 259.76 561.023 260.528C561.695 261.2 562.847 262.736 562.847 264.944C562.847 267.344 561.407 269.552 559.199 270.512V270.608ZM639.5 256.016L617.9 272.624L596.3 256.016L584.3 246.8V314H596.3V271.184L608.108 280.208L617.9 287.792L627.692 280.208L639.5 271.184V314H651.5V246.8L639.5 256.016ZM679.225 258.8H728.281V246.8H679.225C669.241 246.8 661.177 254.96 661.177 264.944V295.856C661.177 305.84 669.241 314 679.225 314H728.281V302H679.225C675.865 302 673.081 299.216 673.081 295.856V283.184H716.281V271.184H673.081V264.944C673.081 261.584 675.865 258.8 679.225 258.8ZM793.062 246.8V289.616L749.863 256.304L737.863 247.088V314.096H749.863V271.568L793.062 304.88L805.063 314.096V246.896L793.062 246.8ZM814.644 246.896V258.896H842.196V314.096H854.196V258.896H881.748V246.896H814.644Z" fill="white"/>
</g>
<defs>
<filter id="filter0_i_56_492" x="6.40039" y="12.7998" width="547.1" height="182.968" filterUnits="userSpaceOnUse" color-interpolation-filters="sRGB">
<feFlood flood-opacity="0" result="BackgroundImageFix"/>
<feBlend mode="normal" in="SourceGraphic" in2="BackgroundImageFix" result="shape"/>
<feColorMatrix in="SourceAlpha" type="matrix" values="0 0 0 0 0 0 0 0 0 0 0 0 0 0 0 0 0 0 127 0" result="hardAlpha"/>
<feOffset dy="15"/>
<feGaussianBlur stdDeviation="1.5"/>
<feComposite in2="hardAlpha" operator="arithmetic" k2="-1" k3="1"/>
<feColorMatrix type="matrix" values="0 0 0 0 0 0 0 0 0 0 0 0 0 0 0 0 0 0 0.25 0"/>
<feBlend mode="normal" in2="shape" result="effect1_innerShadow_56_492"/>
</filter>
<filter id="filter1_i_56_492" x="87.8008" y="246.8" width="793.947" height="70.2959" filterUnits="userSpaceOnUse" color-interpolation-filters="sRGB">
<feFlood flood-opacity="0" result="BackgroundImageFix"/>
<feBlend mode="normal" in="SourceGraphic" in2="BackgroundImageFix" result="shape"/>
<feColorMatrix in="SourceAlpha" type="matrix" values="0 0 0 0 0 0 0 0 0 0 0 0 0 0 0 0 0 0 127 0" result="hardAlpha"/>
<feOffset dy="15"/>
<feGaussianBlur stdDeviation="1.5"/>
<feComposite in2="hardAlpha" operator="arithmetic" k2="-1" k3="1"/>
<feColorMatrix type="matrix" values="0 0 0 0 0 0 0 0 0 0 0 0 0 0 0 0 0 0 0.25 0"/>
<feBlend mode="normal" in2="shape" result="effect1_innerShadow_56_492"/>
</filter>
</defs>
</svg>
